<?xml version="1.0" encoding="utf-8"?>
<!-- Generator: Adobe Illustrator 16.0.0, SVG Export Plug-In . SVG Version: 6.00 Build 0)  -->
<!DOCTYPE svg PUBLIC "-//W3C//DTD SVG 1.1//EN" "http://www.w3.org/Graphics/SVG/1.1/DTD/svg11.dtd">
<svg version="1.1" id="Layer_1" xmlns="http://www.w3.org/2000/svg" xmlns:xlink="http://www.w3.org/1999/xlink" x="0px" y="0px"
	 width="144.75px" height="49.75px" viewBox="0 0 144.75 49.75" style="enable-background:new 0 0 144.75 49.75;"
	 xml:space="preserve">
<rect y="0.088" style="fill:#FFFFFF;" width="144.872" height="49.662"/>
<rect y="0.088" style="fill:#505050;" width="13.177" height="49.661"/>
<path style="fill:#505050;" d="M26.192,43.163h-2.576V23.115h6.832c1.698,0,3.169,0.564,4.41,1.693
	c1.24,1.13,1.861,2.554,1.861,4.271c0,1.718-0.621,3.141-1.861,4.271c-1.241,1.129-2.712,1.692-4.41,1.692h-4.256V43.163z
	 M26.192,32.579h4.312c1.083,0,1.951-0.364,2.604-1.092c0.652-0.729,0.979-1.53,0.979-2.408c0-0.877-0.327-1.68-0.979-2.408
	c-0.653-0.729-1.521-1.092-2.604-1.092h-4.312V32.579z"/>
<path style="fill:#505050;" d="M42.741,43.61c-1.456,0-2.674-0.42-3.654-1.26c-0.979-0.841-1.47-1.951-1.47-3.332
	c0-1.492,0.578-2.664,1.734-3.515c1.158-0.851,2.587-1.272,4.285-1.272c1.513,0,2.753,0.278,3.725,0.84v-0.394
	c0-1.008-0.347-1.813-1.036-2.422c-0.691-0.606-1.54-0.91-2.548-0.91c-0.747,0-1.425,0.179-2.03,0.532
	c-0.607,0.355-1.023,0.84-1.246,1.456l-2.352-1.009c0.316-0.82,0.942-1.581,1.876-2.281c0.933-0.699,2.165-1.05,3.695-1.05
	c1.754,0,3.211,0.514,4.368,1.54c1.157,1.025,1.736,2.474,1.736,4.34v8.288h-2.464v-1.904h-0.112
	C46.223,42.827,44.72,43.61,42.741,43.61 M43.161,41.259c1.062,0,2.03-0.396,2.896-1.189c0.869-0.793,1.304-1.73,1.304-2.813
	c-0.729-0.597-1.82-0.896-3.276-0.896c-1.251,0-2.194,0.271-2.828,0.812c-0.635,0.542-0.952,1.177-0.952,1.904
	c0,0.672,0.289,1.204,0.868,1.596C41.75,41.063,42.414,41.259,43.161,41.259"/>
<path style="fill:#505050;" d="M55.201,29.442v2.24h0.111c0.299-0.803,0.854-1.433,1.665-1.891c0.813-0.457,1.704-0.686,2.676-0.686
	c0.278,0,0.588,0.019,0.924,0.056v2.521c-0.356-0.037-0.701-0.057-1.036-0.057c-1.233,0-2.246,0.359-3.039,1.078
	c-0.794,0.719-1.19,1.703-1.19,2.953v7.505h-2.574v-13.72H55.201L55.201,29.442z M69.312,43.387c-1.438,0-2.533-0.382-3.29-1.146
	c-0.757-0.768-1.135-1.85-1.135-3.249v-7.196H62.48v-2.352h2.407v-4.201h2.576v4.201h3.361v2.352h-3.361v7
	c0,1.494,0.617,2.24,1.848,2.24c0.468,0,0.858-0.074,1.178-0.225l0.895,2.213C70.825,43.267,70.133,43.387,69.312,43.387"/>
<path style="fill:#505050;" d="M75.892,29.442v1.903h0.111c0.374-0.651,0.962-1.208,1.765-1.665s1.661-0.687,2.576-0.687
	c1.698,0,2.996,0.522,3.893,1.567c0.896,1.045,1.344,2.445,1.344,4.199v8.4h-2.576v-8.008c0-2.539-1.13-3.81-3.388-3.81
	c-1.063,0-1.933,0.425-2.604,1.274c-0.672,0.849-1.009,1.834-1.009,2.953v7.589h-2.575V29.44h2.464V29.442z"/>
<path style="fill:#505050;" d="M94.82,43.61c-2.073,0-3.757-0.689-5.055-2.071s-1.945-3.126-1.945-5.236
	c0-1.997,0.63-3.715,1.89-5.151c1.26-1.438,2.869-2.155,4.829-2.155c2.035,0,3.664,0.663,4.887,1.987
	c1.224,1.326,1.834,3.1,1.834,5.319l-0.026,0.478H90.396c0.073,1.382,0.535,2.474,1.386,3.274c0.849,0.804,1.842,1.204,2.98,1.204
	c1.85,0,3.1-0.783,3.753-2.352l2.296,0.951c-0.447,1.063-1.186,1.955-2.212,2.675C97.573,43.251,96.313,43.61,94.82,43.61
	 M98.516,34.651c-0.057-0.784-0.416-1.53-1.077-2.24c-0.663-0.709-1.649-1.064-2.954-1.064c-0.952,0-1.779,0.299-2.479,0.896
	s-1.181,1.4-1.44,2.408H98.516z"/>
<path style="fill:#505050;" d="M106.188,43.163h-2.575V29.442h2.464v2.24h0.11c0.263-0.746,0.8-1.361,1.61-1.849
	c0.812-0.485,1.602-0.728,2.366-0.728s1.409,0.111,1.932,0.336l-0.979,2.406c-0.336-0.13-0.794-0.195-1.372-0.195
	c-0.935,0-1.76,0.369-2.479,1.105c-0.72,0.738-1.078,1.704-1.078,2.898L106.188,43.163L106.188,43.163z"/>
<path style="fill:#505050;" d="M29.485,18.525c-3.391,0-6.239-2.759-6.239-6.149s2.849-6.15,6.239-6.15
	c1.875,0,3.21,0.735,4.215,1.695l-1.186,1.185c-0.719-0.675-1.694-1.2-3.029-1.2c-2.476,0-4.409,1.995-4.409,4.47
	s1.934,4.47,4.409,4.47c1.604,0,2.521-0.645,3.104-1.229c0.48-0.48,0.795-1.17,0.916-2.115H29.47v-1.725h5.67
	c0.061,0.3,0.091,0.705,0.091,1.095c0,1.26-0.346,2.82-1.455,3.93C32.695,17.926,31.315,18.525,29.485,18.525"/>
<path style="fill:#505050;" d="M44.205,14.566c0,2.28-1.785,3.959-3.974,3.959c-2.19,0-3.976-1.68-3.976-3.959
	c0-2.295,1.785-3.96,3.976-3.96C42.42,10.607,44.205,12.272,44.205,14.566 M42.466,14.566c0-1.425-1.035-2.4-2.234-2.4
	c-1.201,0-2.236,0.975-2.236,2.4c0,1.41,1.035,2.4,2.236,2.4C41.431,16.966,42.466,15.977,42.466,14.566"/>
<path style="fill:#505050;" d="M53.205,14.566c0,2.28-1.785,3.959-3.974,3.959c-2.19,0-3.976-1.68-3.976-3.959
	c0-2.295,1.785-3.96,3.976-3.96C51.42,10.607,53.205,12.272,53.205,14.566 M51.466,14.566c0-1.425-1.035-2.4-2.234-2.4
	c-1.201,0-2.236,0.975-2.236,2.4c0,1.41,1.035,2.4,2.236,2.4C50.431,16.966,51.466,15.977,51.466,14.566"/>
<path style="fill:#505050;" d="M61.805,10.847v7.109c0,2.925-1.724,4.125-3.764,4.125c-1.92,0-3.076-1.29-3.51-2.34l1.515-0.63
	c0.271,0.645,0.929,1.41,1.995,1.41c1.304,0,2.115-0.811,2.115-2.326v-0.57h-0.062c-0.389,0.48-1.139,0.899-2.085,0.899
	c-1.979,0-3.795-1.725-3.795-3.944c0-2.235,1.816-3.975,3.795-3.975c0.946,0,1.696,0.42,2.085,0.885h0.062v-0.645H61.805z
	 M60.275,14.581c0-1.395-0.931-2.415-2.114-2.415c-1.2,0-2.205,1.02-2.205,2.415c0,1.38,1.005,2.385,2.205,2.385
	C59.345,16.966,60.275,15.961,60.275,14.581"/>
<rect x="63.49" y="6.646" style="fill:#505050;" width="1.74" height="11.64"/>
<path style="fill:#505050;" d="M72.316,15.871l1.35,0.9c-0.435,0.645-1.484,1.754-3.3,1.754c-2.249,0-3.93-1.739-3.93-3.959
	c0-2.355,1.695-3.96,3.735-3.96c2.054,0,3.061,1.635,3.39,2.52l0.181,0.45l-5.295,2.19c0.405,0.795,1.035,1.2,1.92,1.2
	S71.867,16.531,72.316,15.871 M68.163,14.446l3.539-1.47c-0.194-0.495-0.779-0.84-1.47-0.84
	C69.348,12.136,68.118,12.916,68.163,14.446"/>
</svg>
