<?xml version="1.0" encoding="utf-8"?>
<!-- Generator: Adobe Illustrator 16.0.0, SVG Export Plug-In . SVG Version: 6.00 Build 0)  -->
<!DOCTYPE svg PUBLIC "-//W3C//DTD SVG 1.1//EN" "http://www.w3.org/Graphics/SVG/1.1/DTD/svg11.dtd">
<svg version="1.1" id="Layer_1" xmlns="http://www.w3.org/2000/svg" xmlns:xlink="http://www.w3.org/1999/xlink" x="0px" y="0px"
	 width="103.547px" height="33.66px" viewBox="0 0 103.547 33.66" style="enable-background:new 0 0 103.547 33.66;"
	 xml:space="preserve">
<path style="fill:#4F4F4F;" d="M12.636,28.18c-1.501,0-2.251-0.676-2.251-2.023V14.882c-1.502,0-2.242-0.645-2.222-1.931
	c0-1.35,0.741-2.039,2.222-2.065l2.222-0.026c1.481,0.026,2.222,0.697,2.222,2.011v13.285C14.829,27.504,14.098,28.18,12.636,28.18"
	/>
<path style="fill:#4F4F4F;" d="M11.662,5.163c-0.301,0.168-0.537,0.413-0.705,0.733c-0.17,0.319-0.254,0.653-0.254,1
	c0,0.337,0.084,0.664,0.254,0.978c0.168,0.316,0.401,0.56,0.697,0.733c0.297,0.173,0.61,0.26,0.941,0.26
	c0.32,0,0.631-0.086,0.931-0.26c0.301-0.173,0.534-0.417,0.699-0.733c0.165-0.314,0.247-0.641,0.247-0.978
	c0-0.347-0.084-0.68-0.253-1c-0.169-0.32-0.404-0.564-0.705-0.733c-0.3-0.168-0.606-0.253-0.919-0.253
	C12.273,4.91,11.961,4.995,11.662,5.163"/>
<path style="fill:#4F4F4F;" d="M28.526,26.155V12.871c0-1.314,0.74-1.972,2.222-1.972l7.437-0.013c4.444,0,6.667,2.043,6.667,6.128
	v9.193c0,1.333-0.741,1.998-2.223,1.998c-1.481,0-2.222-0.675-2.222-2.025v-9.246c0-1.367-0.751-2.052-2.252-2.052h-5.186v11.273
	c0,1.349-0.75,2.022-2.252,2.022C29.256,28.18,28.526,27.504,28.526,26.155"/>
<path style="fill:#4F4F4F;" d="M52.927,28.18c-1.502,0-2.253-0.676-2.253-2.023V14.882c-1.501,0-2.242-0.645-2.223-1.931
	c0-1.35,0.74-2.039,2.223-2.065l2.223-0.026c1.482,0.026,2.224,0.697,2.224,2.011v13.285C55.119,27.504,54.391,28.18,52.927,28.18"
	/>
<path style="fill:#4F4F4F;" d="M51.967,5.163c-0.305,0.168-0.545,0.413-0.717,0.733c-0.172,0.319-0.258,0.653-0.258,1
	c0,0.337,0.086,0.664,0.258,0.978c0.172,0.316,0.41,0.56,0.71,0.733c0.302,0.173,0.623,0.26,0.958,0.26
	c0.326,0,0.645-0.086,0.949-0.26c0.305-0.174,0.542-0.417,0.71-0.733c0.168-0.314,0.253-0.641,0.253-0.978
	c0-0.347-0.087-0.68-0.26-1c-0.172-0.32-0.409-0.564-0.717-0.733c-0.306-0.168-0.619-0.253-0.937-0.253
	C52.591,4.91,52.273,4.995,51.967,5.163"/>
<path style="fill:#4F4F4F;" d="M65.387,10.859h2.947c4.464,0,6.697,2.003,6.697,6.008v5.183c0,4.087-2.223,6.128-6.67,6.128h-3.035
	c-4.415,0-6.623-1.998-6.623-5.996v-5.301C58.703,12.866,60.932,10.859,65.387,10.859 M65.341,14.882
	c-1.461,0-2.192,0.662-2.192,1.985v5.262c0,1.368,0.731,2.053,2.192,2.053h2.993c1.502,0,2.252-0.685,2.252-2.053v-5.316
	c0-1.287-0.75-1.932-2.252-1.932L65.341,14.882L65.341,14.882z"/>
<path style="fill:#4F4F4F;" d="M78.602,26.155V12.871c0-1.314,0.738-1.972,2.223-1.972l7.438-0.013c4.443,0,6.666,2.043,6.666,6.128
	v9.193c0,1.333-0.74,1.998-2.223,1.998c-1.48,0-2.221-0.675-2.221-2.025v-9.246c0-1.367-0.754-2.052-2.254-2.052h-5.185v11.273
	c0,1.349-0.753,2.022-2.253,2.022C79.33,28.18,78.602,27.504,78.602,26.155"/>
<path style="fill:#4F4F4F;" d="M19.083,17.905c0-1.441,1.199-2.609,2.679-2.609c1.478,0,2.678,1.168,2.678,2.609
	c0,1.44-1.2,2.608-2.678,2.608C20.282,20.516,19.083,19.348,19.083,17.905"/>
</svg>
